
      <svg data-logo="logo" xmlns="http://www.w3.org/2000/svg" viewBox="0 0 180 44">
        <g id="logogram" transform="translate(0, 1.5) rotate(0)"><path d="M13.0832 0.429993L23.4173 9.25886C24.0309 9.78301 24.3845 10.5522 24.3845 11.3623V18.0162L14.0503 9.18733C13.4368 8.66319 13.0832 7.894 13.0832 7.08386V0.429993Z" fill="#7B19D8"/><path d="M13.0832 40.43L23.4173 31.6011C24.0309 31.077 24.3845 30.3078 24.3845 29.4977V22.8438L14.0503 31.6727C13.4368 32.1968 13.0832 32.966 13.0832 33.7761V40.43Z" fill="#7B19D8"/><path d="M0.754395 9.74034L10.948 18.4005C11.4422 18.8204 12.0681 19.0507 12.7147 19.0507H20.9354L10.7669 10.3925C10.2723 9.9714 9.64557 9.74034 8.99786 9.74034H0.754395Z" fill="#7B19D8"/><path d="M0.754395 31.1196L10.8853 22.4645C11.3804 22.0415 12.0086 21.8093 12.6578 21.8093H20.9599L10.7663 30.4694C10.2721 30.8893 9.64625 31.1196 8.99957 31.1196H0.754395Z" fill="#7B19D8"/><path d="M38.4256 0.429993L28.0914 9.25886C27.4779 9.78301 27.1243 10.5522 27.1243 11.3623V18.0162L37.4584 9.18733C38.072 8.66319 38.4256 7.894 38.4256 7.08386V0.429993Z" fill="#7B19D8"/><path d="M38.4256 40.43L28.0914 31.6011C27.4779 31.077 27.1243 30.3078 27.1243 29.4977V22.8438L37.4584 31.6727C38.072 32.1968 38.4256 32.966 38.4256 33.7761V40.43Z" fill="#7B19D8"/><path d="M50.7544 9.74034L40.5608 18.4005C40.0666 18.8204 39.4407 19.0507 38.7941 19.0507H30.5733L40.7419 10.3925C41.2364 9.9714 41.8632 9.74034 42.5109 9.74034H50.7544Z" fill="#7B19D8"/><path d="M50.7544 31.1196L40.6235 22.4645C40.1284 22.0415 39.5002 21.8093 38.851 21.8093H30.5489L40.7425 30.4694C41.2367 30.8893 41.8625 31.1196 42.5092 31.1196H50.7544Z" fill="#7B19D8"/></g>
        <g id="logotype" transform="translate(57, 1)"><path fill="#a81ce9" d="M12.48 34L9.15 34L9.15 9.50L23.68 9.50L23.68 12.37L12.48 12.37L12.48 19.86L21.82 19.86L21.82 22.59L12.48 22.59L12.48 34ZM32.29 34.42L32.29 34.42Q29.70 34.42 27.63 33.21Q25.57 32.01 24.39 29.85Q23.22 27.70 23.22 24.90L23.22 24.90Q23.22 21.96 24.41 19.82Q25.60 17.69 27.66 16.53Q29.73 15.38 32.29 15.38L32.29 15.38Q34.84 15.38 36.89 16.53Q38.94 17.69 40.14 19.81Q41.35 21.92 41.35 24.83L41.35 24.83Q41.35 27.73 40.16 29.89Q38.97 32.04 36.92 33.23Q34.88 34.42 32.29 34.42ZM32.29 31.62L32.29 31.62Q35.05 31.62 36.59 29.75Q38.13 27.88 38.13 24.90L38.13 24.90Q38.13 23.08 37.36 21.56Q36.59 20.03 35.28 19.11Q33.97 18.18 32.29 18.18L32.29 18.18Q29.52 18.18 27.98 20Q26.44 21.82 26.44 24.83L26.44 24.83Q26.44 26.65 27.21 28.21Q27.98 29.77 29.29 30.69Q30.61 31.62 32.29 31.62ZM47.55 34L44.39 34L44.39 15.80L47.44 15.80L47.44 19.75Q47.89 18.60 48.66 17.60Q49.44 16.60 50.59 15.99Q51.74 15.38 53.28 15.38L53.28 15.38Q53.81 15.38 54.34 15.43Q54.86 15.48 55.21 15.59L55.21 15.59L54.27 18.84Q53.60 18.56 52.69 18.56L52.69 18.56Q51.39 18.56 50.22 19.30Q49.05 20.03 48.30 21.57Q47.55 23.11 47.55 25.49L47.55 25.49L47.55 34ZM60.36 34L57.20 34L57.20 15.80L60.25 15.80L60.25 18.84Q61.23 17.38 62.73 16.38Q64.24 15.38 66.17 15.38L66.17 15.38Q68.34 15.38 69.72 16.43Q71.10 17.48 71.66 19.23L71.66 19.23Q72.75 17.62 74.23 16.50Q75.72 15.38 77.93 15.38L77.93 15.38Q80.90 15.38 82.35 17.25Q83.81 19.13 83.81 22.13L83.81 22.13L83.81 34L80.66 34L80.66 22.38Q80.66 20.49 79.78 19.32Q78.91 18.14 77.37 18.14L77.37 18.14Q75.79 18.14 74.44 19.32Q73.09 20.49 72.08 22.06L72.08 22.06L72.08 34L68.93 34L68.93 22.38Q68.93 20.49 68.06 19.32Q67.18 18.14 65.64 18.14L65.64 18.14Q64.10 18.14 62.73 19.28Q61.37 20.42 60.36 21.96L60.36 21.96L60.36 34ZM91.23 34L88.08 34L88.08 15.80L91.23 15.80L91.23 34ZM89.65 12.68L89.65 12.68Q88.74 12.68 88.09 12.02Q87.45 11.35 87.45 10.48L87.45 10.48Q87.45 9.46 88.04 8.87Q88.64 8.27 89.65 8.27L89.65 8.27Q90.56 8.27 91.21 8.92Q91.86 9.57 91.86 10.48L91.86 10.48Q91.86 11.46 91.26 12.07Q90.67 12.68 89.65 12.68ZM99.17 34L96.02 34L96.02 19.20L93.22 19.20L93.22 16.46L96.02 16.46L96.02 14.33Q96.02 11.25 97.73 9.46Q99.45 7.68 102.22 7.68L102.22 7.68Q103.65 7.68 104.74 8.01Q105.82 8.34 106.80 8.83L106.80 8.83L105.86 11.49Q105.12 11.11 104.28 10.79Q103.44 10.48 102.43 10.48L102.43 10.48Q100.96 10.48 100.06 11.41Q99.17 12.33 99.17 14.12L99.17 14.12L99.17 16.46L104.56 16.46L104.56 19.20L99.17 19.20L99.17 34ZM107.50 42.12L107.50 42.12Q106.45 42.12 105.66 41.91Q104.88 41.70 104.42 41.42L104.42 41.42L105.12 38.80Q105.54 39.04 106.17 39.22Q106.80 39.39 107.57 39.39L107.57 39.39Q109.04 39.39 110.20 38.45Q111.35 37.50 112.40 34.73L112.40 34.73L113.21 32.63L111.53 32.63L104.42 16.64L107.22 15.38L114.01 30.54L119.30 15.52L122.20 16.64L115.52 34.91Q114.50 37.71 113.31 39.28Q112.12 40.86 110.69 41.49Q109.25 42.12 107.50 42.12Z"/></g>
        
      </svg>
    